<svg xmlns="http://www.w3.org/2000/svg" style="display: none">
  <symbol id="icon-home" width="38" height="38" viewBox="0 0 38 38" fill="none">
    <path
      d="M4.75 22.1667H7.91667V33.25C7.91667 33.6699 8.08348 34.0727 8.38042 34.3696C8.67735 34.6665 9.08008 34.8333 9.5 34.8333H28.5C28.9199 34.8333 29.3227 34.6665 29.6196 34.3696C29.9165 34.0727 30.0833 33.6699 30.0833 33.25V22.1667H33.25C33.556 22.1669 33.8555 22.0784 34.1121 21.9117C34.3687 21.745 34.5714 21.5074 34.6956 21.2278C34.8206 20.9482 34.8617 20.6384 34.8139 20.336C34.7662 20.0335 34.6315 19.7515 34.4264 19.5241L20.1764 3.69076C19.5763 3.02259 18.4237 3.02259 17.8236 3.69076L3.57359 19.5241C3.36885 19.7516 3.23442 20.0335 3.18656 20.3358C3.13871 20.638 3.17948 20.9477 3.30394 21.2273C3.42841 21.5069 3.63123 21.7444 3.88787 21.9111C4.14451 22.0778 4.44396 22.1666 4.75 22.1667ZM13.7006 18.4316C14.3596 17.7809 15.2484 17.4161 16.1745 17.4161C17.1006 17.4161 17.9895 17.7809 18.6485 18.4316L19.0032 18.7799L19.3563 18.4316C20.0156 17.7809 20.9046 17.416 21.831 17.416C22.7574 17.416 23.6464 17.7809 24.3057 18.4316C24.6328 18.7463 24.893 19.1237 25.0708 19.5413C25.2485 19.9589 25.3401 20.4081 25.3401 20.862C25.3401 21.3159 25.2485 21.7651 25.0708 22.1827C24.893 22.6003 24.6328 22.9778 24.3057 23.2924L19.0032 28.5L13.7006 23.2924C13.3735 22.9778 13.1133 22.6003 12.9356 22.1827C12.7578 21.7651 12.6662 21.3159 12.6662 20.862C12.6662 20.4081 12.7578 19.9589 12.9356 19.5413C13.1133 19.1237 13.3735 18.7463 13.7006 18.4316Z"
      fill="black"
    />
  </symbol>
  <symbol
    id="icon-publish"
    width="38"
    height="38"
    viewBox="0 0 38 38"
    fill="none"
  >
    <path
      d="M33.25 22.1667V30.0833C33.25 30.9232 32.9164 31.7286 32.3225 32.3225C31.7286 32.9164 30.9232 33.25 30.0833 33.25H7.91667C7.07681 33.25 6.27136 32.9164 5.6775 32.3225C5.08363 31.7286 4.75 30.9232 4.75 30.0833V7.91667C4.75 7.07681 5.08363 6.27136 5.6775 5.6775C6.27136 5.08363 7.07681 4.75 7.91667 4.75H15.8333V7.91667H7.91667V30.0833H30.0833V22.1667H33.25Z"
      fill="black"
    />
    <path
      d="M33.25 11.0833H26.9167V4.75H23.75V11.0833H17.4167V14.25H23.75V20.5833H26.9167V14.25H33.25V11.0833Z"
      fill="black"
    />
  </symbol>
  <symbol
    id="icon-search"
    width="20"
    height="20"
    viewBox="0 0 20 20"
    fill="none"
  >
    <path
      d="M17.5 17.5L13.7617 13.755L17.5 17.5ZM15.8333 8.75002C15.8333 10.6286 15.087 12.4303 13.7587 13.7587C12.4303 15.0871 10.6286 15.8334 8.74999 15.8334C6.87137 15.8334 5.0697 15.0871 3.74132 13.7587C2.41293 12.4303 1.66666 10.6286 1.66666 8.75002C1.66666 6.8714 2.41293 5.06973 3.74132 3.74135C5.0697 2.41296 6.87137 1.66669 8.74999 1.66669C10.6286 1.66669 12.4303 2.41296 13.7587 3.74135C15.087 5.06973 15.8333 6.8714 15.8333 8.75002V8.75002Z"
      stroke="#949494"
      stroke-width="2.66667"
      stroke-linecap="round"
    />
  </symbol>
  <symbol id="icon-like" width="32" height="32" viewBox="0 0 32 32">
    <path
      d="M9.33332 4C5.65199 4 2.66666 6.95467 2.66666 10.6C2.66666 13.5427 3.83332 20.5267 15.3173 27.5867C15.523 27.7118 15.7592 27.778 16 27.778C16.2408 27.778 16.4769 27.7118 16.6827 27.5867C28.1667 20.5267 29.3333 13.5427 29.3333 10.6C29.3333 6.95467 26.348 4 22.6667 4C18.9853 4 16 8 16 8C16 8 13.0147 4 9.33332 4Z"
      stroke-width="2.66667"
      stroke-linecap="round"
      stroke-linejoin="round"
    />
  </symbol>
  <symbol
    id="icon-comment"
    width="32"
    height="32"
    viewBox="0 0 32 32"
  >
    <path
      d="M18.6667 25.3333C23.6947 25.3333 26.2093 25.3333 27.7707 23.7707C29.3333 22.2093 29.3333 19.6947 29.3333 14.6667C29.3333 9.63867 29.3333 7.124 27.7707 5.56267C26.2093 4 23.6947 4 18.6667 4H13.3333C8.30532 4 5.79066 4 4.22932 5.56267C2.66666 7.124 2.66666 9.63867 2.66666 14.6667C2.66666 19.6947 2.66666 22.2093 4.22932 23.7707C5.09999 24.6427 6.26666 25.028 7.99999 25.1973"
      stroke="black"
      stroke-width="2.66667"
      stroke-linecap="round"
      stroke-linejoin="round"
    />
    <path
      d="M18.6667 25.3333C17.0187 25.3333 15.2027 26 13.5453 26.86C10.8813 28.2427 9.54932 28.9347 8.89332 28.4933C8.23732 28.0533 8.36132 26.6867 8.61065 23.9547L8.66665 23.3333"
      stroke="black"
      stroke-width="2.66667"
      stroke-linecap="round"
    />
  </symbol>
  <symbol
    id="icon-favorite"
    width="32"
    height="32"
    viewBox="0 0 32 32"
  >
    <path
      d="M29.3333 13.4667C29.4667 12.8 28.9333 12 28.2667 12L20.6667 10.9333L17.2 4C17.0667 3.73333 16.9333 3.6 16.6667 3.46667C16 3.06667 15.2 3.33333 14.8 4L11.4667 10.9333L3.86667 12C3.46667 12 3.20001 12.1333 3.06667 12.4C2.53334 12.9333 2.53334 13.7333 3.06667 14.2667L8.53334 19.6L7.20001 27.2C7.20001 27.4667 7.20001 27.7333 7.33334 28C7.73334 28.6667 8.53334 28.9333 9.20001 28.5333L16 24.9333L22.8 28.5333C22.9333 28.6667 23.2 28.6667 23.4667 28.6667H23.7333C24.4 28.5333 24.9333 27.8667 24.8 27.0667L23.4667 19.4667L28.9333 14.1333C29.2 14 29.3333 13.7333 29.3333 13.4667V13.4667Z"
      stroke-width="3"
    />
  </symbol>
  <symbol id="icon-posts" width="32" height="32" viewBox="0 0 32 32">
    <path
      d="M4 5.33333C4 4.97971 4.14048 4.64057 4.39052 4.39052C4.64057 4.14048 4.97971 4 5.33333 4H9.33333C9.68696 4 10.0261 4.14048 10.2761 4.39052C10.5262 4.64057 10.6667 4.97971 10.6667 5.33333V9.33333C10.6667 9.68696 10.5262 10.0261 10.2761 10.2761C10.0261 10.5262 9.68696 10.6667 9.33333 10.6667H5.33333C4.97971 10.6667 4.64057 10.5262 4.39052 10.2761C4.14048 10.0261 4 9.68696 4 9.33333V5.33333ZM4 14C4 13.6464 4.14048 13.3072 4.39052 13.0572C4.64057 12.8071 4.97971 12.6667 5.33333 12.6667H9.33333C9.68696 12.6667 10.0261 12.8071 10.2761 13.0572C10.5262 13.3072 10.6667 13.6464 10.6667 14V18C10.6667 18.3536 10.5262 18.6928 10.2761 18.9428C10.0261 19.1929 9.68696 19.3333 9.33333 19.3333H5.33333C4.97971 19.3333 4.64057 19.1929 4.39052 18.9428C4.14048 18.6928 4 18.3536 4 18V14ZM4 22.6667C4 22.313 4.14048 21.9739 4.39052 21.7239C4.64057 21.4738 4.97971 21.3333 5.33333 21.3333H9.33333C9.68696 21.3333 10.0261 21.4738 10.2761 21.7239C10.5262 21.9739 10.6667 22.313 10.6667 22.6667V26.6667C10.6667 27.0203 10.5262 27.3594 10.2761 27.6095C10.0261 27.8595 9.68696 28 9.33333 28H5.33333C4.97971 28 4.64057 27.8595 4.39052 27.6095C4.14048 27.3594 4 27.0203 4 26.6667V22.6667ZM12.6667 5.33333C12.6667 4.97971 12.8071 4.64057 13.0572 4.39052C13.3072 4.14048 13.6464 4 14 4H18C18.3536 4 18.6928 4.14048 18.9428 4.39052C19.1929 4.64057 19.3333 4.97971 19.3333 5.33333V9.33333C19.3333 9.68696 19.1929 10.0261 18.9428 10.2761C18.6928 10.5262 18.3536 10.6667 18 10.6667H14C13.6464 10.6667 13.3072 10.5262 13.0572 10.2761C12.8071 10.0261 12.6667 9.68696 12.6667 9.33333V5.33333ZM12.6667 14C12.6667 13.6464 12.8071 13.3072 13.0572 13.0572C13.3072 12.8071 13.6464 12.6667 14 12.6667H18C18.3536 12.6667 18.6928 12.8071 18.9428 13.0572C19.1929 13.3072 19.3333 13.6464 19.3333 14V18C19.3333 18.3536 19.1929 18.6928 18.9428 18.9428C18.6928 19.1929 18.3536 19.3333 18 19.3333H14C13.6464 19.3333 13.3072 19.1929 13.0572 18.9428C12.8071 18.6928 12.6667 18.3536 12.6667 18V14ZM12.6667 22.6667C12.6667 22.313 12.8071 21.9739 13.0572 21.7239C13.3072 21.4738 13.6464 21.3333 14 21.3333H18C18.3536 21.3333 18.6928 21.4738 18.9428 21.7239C19.1929 21.9739 19.3333 22.313 19.3333 22.6667V26.6667C19.3333 27.0203 19.1929 27.3594 18.9428 27.6095C18.6928 27.8595 18.3536 28 18 28H14C13.6464 28 13.3072 27.8595 13.0572 27.6095C12.8071 27.3594 12.6667 27.0203 12.6667 26.6667V22.6667ZM21.3333 5.33333C21.3333 4.97971 21.4738 4.64057 21.7239 4.39052C21.9739 4.14048 22.313 4 22.6667 4H26.6667C27.0203 4 27.3594 4.14048 27.6095 4.39052C27.8595 4.64057 28 4.97971 28 5.33333V9.33333C28 9.68696 27.8595 10.0261 27.6095 10.2761C27.3594 10.5262 27.0203 10.6667 26.6667 10.6667H22.6667C22.313 10.6667 21.9739 10.5262 21.7239 10.2761C21.4738 10.0261 21.3333 9.68696 21.3333 9.33333V5.33333ZM21.3333 14C21.3333 13.6464 21.4738 13.3072 21.7239 13.0572C21.9739 12.8071 22.313 12.6667 22.6667 12.6667H26.6667C27.0203 12.6667 27.3594 12.8071 27.6095 13.0572C27.8595 13.3072 28 13.6464 28 14V18C28 18.3536 27.8595 18.6928 27.6095 18.9428C27.3594 19.1929 27.0203 19.3333 26.6667 19.3333H22.6667C22.313 19.3333 21.9739 19.1929 21.7239 18.9428C21.4738 18.6928 21.3333 18.3536 21.3333 18V14ZM21.3333 22.6667C21.3333 22.313 21.4738 21.9739 21.7239 21.7239C21.9739 21.4738 22.313 21.3333 22.6667 21.3333H26.6667C27.0203 21.3333 27.3594 21.4738 27.6095 21.7239C27.8595 21.9739 28 22.313 28 22.6667V26.6667C28 27.0203 27.8595 27.3594 27.6095 27.6095C27.3594 27.8595 27.0203 28 26.6667 28H22.6667C22.313 28 21.9739 27.8595 21.7239 27.6095C21.4738 27.3594 21.3333 27.0203 21.3333 26.6667V22.6667Z"
    />
  </symbol>
  <symbol
    id="icon-upload-image"
    width="254"
    height="310"
    viewBox="0 0 254 310"
    fill="none"
  >
    <path
      d="M13.336 279.92V289.264H4.632V299.536H25.816V289.264H15.608V285.2H28.024V283.024H15.608V279.92H13.336ZM23.512 297.392H6.936V291.44H23.512V297.392ZM4.568 300.944C3.416 303.568 2.04 305.84 0.44 307.728L2.328 309.104C3.928 307.056 5.304 304.656 6.52 301.872L4.568 300.944ZM11.544 301.872L9.4 302.32C10.008 304.336 10.52 306.64 10.968 309.264L13.272 308.752C12.76 306.288 12.184 303.984 11.544 301.872ZM18.232 301.552L16.056 302C17.016 304.08 17.816 306.48 18.456 309.2L20.728 308.688C20.024 306.128 19.192 303.728 18.232 301.552ZM24.792 300.912L22.936 302.096C24.888 304.72 26.424 307.088 27.544 309.264L29.464 307.92C28.376 305.936 26.84 303.6 24.792 300.912ZM35.352 284.592V286.8H45.816V292.112H32.888V294.352H45.816V305.648H38.296V297.136H36.088V309.264H38.296V307.792H55.736V309.264H57.944V297.136H55.736V305.648H48.184V294.352H61.144V292.112H48.184V286.8H58.52V284.592H48.184V280.08H45.816V284.592H35.352ZM76.312 279.856V305.68H64.792V307.92H93.272V305.68H78.68V291.984H90.552V289.744H78.68V279.856H76.312ZM100.344 291.344V309.264H102.648V287.856C103.928 285.648 104.952 283.312 105.784 280.848L103.608 279.824C102.04 284.752 99.544 289.136 96.152 292.944L96.888 295.408C98.136 294.128 99.288 292.752 100.344 291.344ZM106.2 283.952V286.192H111.896C111.576 287.408 111.224 288.656 110.84 289.904H104.792V292.112H110.136C109.4 294.256 108.6 296.336 107.768 298.32H121.464C119.992 300.24 118.008 302.064 115.48 303.824C113.624 302.928 111.704 302.096 109.72 301.328L108.504 303.12C112.6 304.656 116.632 306.768 120.536 309.456L121.848 307.472C120.44 306.544 119 305.68 117.496 304.88C120.44 302.64 122.584 300.4 123.928 298.16V296.176H110.776C111.288 294.928 111.832 293.584 112.344 292.112H125.72V289.904H113.08C113.464 288.72 113.816 287.472 114.168 286.192H124.408V283.952H114.744C115.032 282.704 115.32 281.392 115.64 280.048L113.4 279.824L112.44 283.952H106.2ZM128.6 293.104V295.408H157.368V293.104H128.6ZM174.232 279.888V293.104H171.576V295.344H174.232V305.968C174.232 306.48 173.88 306.864 173.24 307.12L174.264 309.2C177.272 308.368 179.928 307.28 182.232 305.936L181.816 303.728C180.024 304.816 178.232 305.648 176.472 306.288V295.344H179.864C181.752 301.232 184.568 305.68 188.28 308.752L189.848 306.992C186.424 304.272 183.768 300.4 181.912 295.344H189.304V293.104H176.472V279.888H174.232ZM186.456 281.52C184.6 284.336 181.816 286.864 178.04 289.104L179.384 290.896C183.256 288.592 186.136 286.032 188.056 283.184L186.456 281.52ZM163.864 290.416H169.784V281.136H160.792V283.28H167.576V288.272H161.816L160.824 297.616H167.992C167.992 301.424 167.832 303.92 167.576 305.104C167.256 306.256 166.168 306.864 164.312 306.864C163.416 306.864 162.552 306.8 161.72 306.736L162.296 308.848C163.128 308.912 163.992 308.976 164.824 308.976C167.704 308.848 169.336 307.888 169.72 306.064C170.072 304.368 170.264 300.848 170.264 295.536H163.256L163.864 290.416ZM203.928 284.016C202.904 286.448 200.92 288.528 198.008 290.256L199.288 291.92C200.504 291.152 201.592 290.32 202.552 289.424C203.448 290.384 204.536 291.28 205.784 292.112C203.544 293.168 200.76 294 197.464 294.576L198.488 296.432C202.136 295.632 205.176 294.576 207.64 293.264C209.88 294.512 212.536 295.536 215.64 296.368L216.856 294.64C214.104 294 211.672 293.136 209.528 292.112C211.352 290.832 212.696 289.328 213.592 287.632V286.032H205.144C205.464 285.456 205.72 284.88 205.976 284.272L203.928 284.016ZM207.64 291.12C206.168 290.224 204.856 289.232 203.736 288.144C203.8 288.016 203.896 287.888 204.024 287.76H211.288C210.424 289.04 209.208 290.16 207.64 291.12ZM201.304 299.728L200.408 301.456C204.696 302.288 208.824 303.472 212.792 305.008L213.56 303.152C209.656 301.68 205.56 300.528 201.304 299.728ZM204.632 295.248L203.576 296.784C205.944 297.552 208.216 298.576 210.424 299.92L211.512 298.256C209.432 297.104 207.128 296.08 204.632 295.248ZM220.056 281.264H193.944V309.2H196.184V307.888H217.816V309.2H220.056V281.264ZM196.184 305.84V283.312H217.816V305.84H196.184ZM232.92 290.576H251.768V288.368H244.568V279.856H242.296V288.368H232.92V280.752H230.584V292.496C230.52 299.408 228.824 304.464 225.464 307.632L227.224 309.168C229.944 306.608 231.704 302.896 232.472 298.096H245.336V309.264H247.64V295.856H232.76C232.824 294.8 232.888 293.68 232.92 292.496V290.576Z"
      fill="#B1B1B1"
    />
    <g clip-path="url(#clip0_301_143)">
      <path
        d="M0.0317383 47.625C0.0317383 39.2044 3.37682 31.1286 9.3311 25.1744C15.2854 19.2201 23.3611 15.875 31.7817 15.875H222.282C230.702 15.875 238.778 19.2201 244.732 25.1744C250.687 31.1286 254.032 39.2044 254.032 47.625V206.375C254.032 214.796 250.687 222.871 244.732 228.826C238.778 234.78 230.702 238.125 222.282 238.125H31.7817C23.3611 238.125 15.2854 234.78 9.3311 228.826C3.37682 222.871 0.0317383 214.796 0.0317383 206.375V47.625ZM15.9067 190.5V206.375C15.9067 210.585 17.5793 214.623 20.5564 217.6C23.5336 220.577 27.5714 222.25 31.7817 222.25H222.282C226.492 222.25 230.53 220.577 233.507 217.6C236.484 214.623 238.157 210.585 238.157 206.375V150.812L178.197 119.904C176.708 119.158 175.023 118.899 173.379 119.164C171.735 119.429 170.216 120.205 169.037 121.38L110.141 180.277L67.9132 152.146C66.3886 151.131 64.5598 150.674 62.737 150.854C60.9142 151.033 59.2095 151.837 57.912 153.13L15.9067 190.5ZM95.2817 87.3125C95.2817 80.997 92.7729 74.9402 88.3072 70.4745C83.8415 66.0088 77.7847 63.5 71.4692 63.5C65.1538 63.5 59.097 66.0088 54.6313 70.4745C50.1655 74.9402 47.6567 80.997 47.6567 87.3125C47.6567 93.628 50.1655 99.6848 54.6313 104.15C59.097 108.616 65.1538 111.125 71.4692 111.125C77.7847 111.125 83.8415 108.616 88.3072 104.15C92.7729 99.6848 95.2817 93.628 95.2817 87.3125Z"
        fill="#B1B1B1"
      />
    </g>
    <defs>
      <clipPath id="clip0_301_143">
        <rect width="254" height="254" fill="white" />
      </clipPath>
    </defs>
  </symbol>
  <symbol
    id="icon-close"
    width="53"
    height="53"
    viewBox="0 0 53 53"
    fill="none"
  >
    <path
      d="M38.8447 11.0417L26.5001 23.3863L14.1555 11.0417L11.0417 14.1555L23.3863 26.5001L11.0417 38.8447L14.1555 41.9584L26.5001 29.6138L38.8447 41.9584L41.9584 38.8447L29.6138 26.5001L41.9584 14.1555L38.8447 11.0417Z"
      fill="black"
    />
  </symbol>
</svg>
