<svg width="105" height="27" viewBox="0 0 105 27" fill="none" xmlns="http://www.w3.org/2000/svg">
<path d="M23.0725 26V4.51L13.2725 21.275H12.1525L2.3525 4.51V26H0.5675V1.15H2.3525L12.7125 18.93L23.0725 1.15H24.8575V26H23.0725ZM30.8384 26V7.8H32.5884V26H30.8384ZM30.8384 3.67V0.449999H32.5884V3.67H30.8384ZM37.7695 1.15L47.2195 23.76L56.6695 1.15H58.5595L48.0595 26H46.4145L35.8795 1.15H37.7695ZM61.8394 26V7.8H63.5894V26H61.8394ZM61.8394 3.67V0.449999H63.5894V3.67H61.8394ZM76.5755 26.35C75.3155 26.35 74.1488 26.0933 73.0755 25.58C72.0021 25.0433 71.0688 24.3433 70.2755 23.48C69.5055 22.5933 68.8988 21.59 68.4555 20.47C68.0355 19.3267 67.8255 18.1483 67.8255 16.935C67.8255 15.675 68.0355 14.4733 68.4555 13.33C68.8755 12.1867 69.4588 11.1833 70.2055 10.32C70.9521 9.45667 71.8271 8.76833 72.8305 8.255C73.8571 7.74167 74.9771 7.485 76.1905 7.485C76.9838 7.485 77.7305 7.60167 78.4305 7.835C79.1305 8.06833 79.7838 8.38333 80.3905 8.78C80.9971 9.15333 81.5455 9.59667 82.0355 10.11C82.5255 10.6233 82.9455 11.1717 83.2955 11.755V0.449999H85.0455V23.55C85.0455 24.1333 85.2905 24.425 85.7805 24.425V26C85.6405 26.0233 85.5238 26.035 85.4305 26.035C85.3371 26.0583 85.2438 26.07 85.1505 26.07C84.6838 26.07 84.2871 25.895 83.9605 25.545C83.6338 25.1717 83.4705 24.7867 83.4705 24.39V22.36C82.7238 23.5733 81.7205 24.5417 80.4605 25.265C79.2238 25.9883 77.9288 26.35 76.5755 26.35ZM76.8905 24.775C77.5205 24.775 78.1971 24.6467 78.9205 24.39C79.6438 24.1333 80.3088 23.7833 80.9155 23.34C81.5455 22.8733 82.0821 22.3483 82.5255 21.765C82.9688 21.1817 83.2255 20.5517 83.2955 19.875V13.89C83.0388 13.2367 82.6655 12.6183 82.1755 12.035C81.7088 11.4283 81.1721 10.915 80.5655 10.495C79.9588 10.0517 79.3055 9.70167 78.6055 9.445C77.9055 9.18833 77.2288 9.06 76.5755 9.06C75.5255 9.06 74.5688 9.29333 73.7055 9.76C72.8421 10.2033 72.1071 10.7983 71.5005 11.545C70.8938 12.2683 70.4271 13.1083 70.1005 14.065C69.7738 14.9983 69.6105 15.9667 69.6105 16.97C69.6105 18.02 69.7971 19.0117 70.1705 19.945C70.5438 20.8783 71.0571 21.7067 71.7105 22.43C72.3871 23.1533 73.1571 23.725 74.0205 24.145C74.9071 24.565 75.8638 24.775 76.8905 24.775ZM95.0987 26.35C94.2587 26.35 93.477 26.21 92.7537 25.93C92.0303 25.6267 91.3887 25.23 90.8287 24.74C90.292 24.2267 89.872 23.6317 89.5687 22.955C89.2653 22.255 89.1137 21.5083 89.1137 20.715C89.1137 19.9217 89.3003 19.1983 89.6737 18.545C90.047 17.8917 90.5603 17.3317 91.2137 16.865C91.8903 16.375 92.6953 16.0017 93.6287 15.745C94.562 15.465 95.5887 15.325 96.7087 15.325C97.6887 15.325 98.6687 15.4183 99.6487 15.605C100.652 15.7683 101.55 16.0017 102.344 16.305V14.52C102.344 12.7933 101.854 11.4283 100.874 10.425C99.8937 9.39833 98.5637 8.885 96.8837 8.885C95.997 8.885 95.052 9.07167 94.0487 9.445C93.0687 9.81833 92.0653 10.355 91.0387 11.055L90.3737 9.865C92.707 8.27833 94.9237 7.485 97.0237 7.485C99.217 7.485 100.944 8.12667 102.204 9.41C103.464 10.67 104.094 12.42 104.094 14.66V23.55C104.094 24.1333 104.35 24.425 104.864 24.425V26C104.747 26.0233 104.619 26.035 104.479 26.035C104.362 26.0583 104.257 26.07 104.164 26.07C103.697 26.07 103.324 25.9183 103.044 25.615C102.764 25.2883 102.6 24.9033 102.554 24.46V22.955C101.714 24.0517 100.64 24.8917 99.3337 25.475C98.027 26.0583 96.6153 26.35 95.0987 26.35ZM95.4487 24.95C96.802 24.95 98.0387 24.6933 99.1587 24.18C100.302 23.6667 101.177 22.99 101.784 22.15C102.157 21.66 102.344 21.1933 102.344 20.75V17.53C101.504 17.2033 100.629 16.9583 99.7187 16.795C98.8087 16.6317 97.8637 16.55 96.8837 16.55C95.9737 16.55 95.1453 16.655 94.3987 16.865C93.652 17.0517 93.0103 17.32 92.4737 17.67C91.937 18.02 91.517 18.4517 91.2137 18.965C90.9337 19.455 90.7937 20.0033 90.7937 20.61C90.7937 21.2167 90.9103 21.7883 91.1437 22.325C91.377 22.8617 91.7037 23.3283 92.1237 23.725C92.5437 24.0983 93.0337 24.4017 93.5937 24.635C94.177 24.845 94.7953 24.95 95.4487 24.95Z" fill="black"/>
</svg>
